<?xml version="1.0" encoding="UTF-8"?>
<!DOCTYPE svg PUBLIC "-//W3C//DTD SVG 1.1//EN" "http://www.w3.org/Graphics/SVG/1.1/DTD/svg11.dtd">
<svg xmlns="http://www.w3.org/2000/svg" version="1.1" width="512px" height="512px" style="shape-rendering:geometricPrecision; text-rendering:geometricPrecision; image-rendering:optimizeQuality; fill-rule:evenodd; clip-rule:evenodd" xmlns:xlink="http://www.w3.org/1999/xlink">
<g><path style="opacity:0.004" fill="#d6d6d7" d="M 267.5,25.5 C 259.493,25.6664 251.493,25.4997 243.5,25C 251.677,24.1772 259.677,24.3439 267.5,25.5 Z"/></g>
<g><path style="opacity:0.01" fill="#d7d7d8" d="M 230.5,26.5 C 234.311,25.3547 238.311,25.1881 242.5,26C 238.514,26.4988 234.514,26.6655 230.5,26.5 Z"/></g>
<g><path style="opacity:0.01" fill="#d7d7d8" d="M 267.5,25.5 C 271.514,25.3345 275.514,25.5012 279.5,26C 275.311,26.8119 271.311,26.6453 267.5,25.5 Z"/></g>
<g><path style="opacity:0.01" fill="#d6d6d8" d="M 222.5,27.5 C 224.948,26.5269 227.615,26.1936 230.5,26.5C 228.052,27.4731 225.385,27.8064 222.5,27.5 Z"/></g>
<g><path style="opacity:0.986" fill="#d7d7d8" d="M 337.5,41.5 C 360.209,51.0176 381.209,63.3509 400.5,78.5C 400.5,79.1667 400.833,79.5 401.5,79.5C 403.475,81.137 405.475,82.8036 407.5,84.5C 407.5,85.1667 407.833,85.5 408.5,85.5C 408.5,86.1667 408.833,86.5 409.5,86.5C 414.833,91.1667 419.833,96.1667 424.5,101.5C 424.5,102.167 424.833,102.5 425.5,102.5C 425.5,103.167 425.833,103.5 426.5,103.5C 428.177,105.54 429.844,107.54 431.5,109.5C 431.5,110.167 431.833,110.5 432.5,110.5C 446.618,128.3 458.285,147.634 467.5,168.5C 467.98,171.443 468.98,174.11 470.5,176.5C 476.591,194.527 480.925,212.86 483.5,231.5C 484.893,250.528 484.559,269.528 482.5,288.5C 480.678,295.283 479.344,302.283 478.5,309.5C 477.566,310.568 477.232,311.901 477.5,313.5C 476.076,315.515 475.41,317.848 475.5,320.5C 474.596,321.209 474.263,322.209 474.5,323.5C 473.596,324.209 473.263,325.209 473.5,326.5C 472.596,327.209 472.263,328.209 472.5,329.5C 471.596,330.209 471.263,331.209 471.5,332.5C 470.596,333.209 470.263,334.209 470.5,335.5C 469.069,336.78 468.402,338.447 468.5,340.5C 467.069,341.78 466.402,343.447 466.5,345.5C 465.662,345.842 465.328,346.508 465.5,347.5C 464.069,348.78 463.402,350.447 463.5,352.5C 462.662,352.842 462.328,353.508 462.5,354.5C 461.662,354.842 461.328,355.508 461.5,356.5C 460.662,356.842 460.328,357.508 460.5,358.5C 459.662,358.842 459.328,359.508 459.5,360.5C 458.662,360.842 458.328,361.508 458.5,362.5C 457.662,362.842 457.328,363.508 457.5,364.5C 456.833,364.5 456.5,364.833 456.5,365.5C 455.662,365.842 455.328,366.508 455.5,367.5C 454.662,367.842 454.328,368.508 454.5,369.5C 453.662,369.842 453.328,370.508 453.5,371.5C 452.833,371.5 452.5,371.833 452.5,372.5C 451.662,372.842 451.328,373.508 451.5,374.5C 450.662,374.842 450.328,375.508 450.5,376.5C 449.833,376.5 449.5,376.833 449.5,377.5C 448.662,377.842 448.328,378.508 448.5,379.5C 447.833,379.5 447.5,379.833 447.5,380.5C 446.662,380.842 446.328,381.508 446.5,382.5C 445.833,382.5 445.5,382.833 445.5,383.5C 444.662,383.842 444.328,384.508 444.5,385.5C 443.833,385.5 443.5,385.833 443.5,386.5C 442.662,386.842 442.328,387.508 442.5,388.5C 439.815,391.19 437.482,394.19 435.5,397.5C 433.457,398.579 432.124,400.246 431.5,402.5C 430.833,402.5 430.5,402.833 430.5,403.5C 429.833,403.5 429.5,403.833 429.5,404.5C 428.026,405.436 427.026,406.77 426.5,408.5C 425.833,408.5 425.5,408.833 425.5,409.5C 424.833,409.5 424.5,409.833 424.5,410.5C 423.833,410.5 423.5,410.833 423.5,411.5C 422.833,411.5 422.5,411.833 422.5,412.5C 421.833,412.5 421.5,412.833 421.5,413.5C 420.833,413.5 420.5,413.833 420.5,414.5C 419.833,414.5 419.5,414.833 419.5,415.5C 418.833,415.5 418.5,415.833 418.5,416.5C 417.833,416.5 417.5,416.833 417.5,417.5C 416.833,417.5 416.5,417.833 416.5,418.5C 415.833,418.5 415.5,418.833 415.5,419.5C 414.833,419.5 414.5,419.833 414.5,420.5C 413.833,420.5 413.5,420.833 413.5,421.5C 412.833,421.5 412.5,421.833 412.5,422.5C 411.833,422.5 411.5,422.833 411.5,423.5C 410.833,423.5 410.5,423.833 410.5,424.5C 409.833,424.5 409.5,424.833 409.5,425.5C 408.833,425.5 408.5,425.833 408.5,426.5C 407.833,426.5 407.5,426.833 407.5,427.5C 405.246,428.124 403.579,429.457 402.5,431.5C 401.833,431.5 401.5,431.833 401.5,432.5C 399.246,433.124 397.579,434.457 396.5,436.5C 395.833,436.5 395.5,436.833 395.5,437.5C 394.508,437.328 393.842,437.662 393.5,438.5C 392.833,438.5 392.5,438.833 392.5,439.5C 391.833,439.5 391.5,439.833 391.5,440.5C 390.508,440.328 389.842,440.662 389.5,441.5C 388.833,441.5 388.5,441.833 388.5,442.5C 387.833,442.5 387.5,442.833 387.5,443.5C 386.508,443.328 385.842,443.662 385.5,444.5C 384.833,444.5 384.5,444.833 384.5,445.5C 383.508,445.328 382.842,445.662 382.5,446.5C 381.833,446.5 381.5,446.833 381.5,447.5C 380.508,447.328 379.842,447.662 379.5,448.5C 378.833,448.5 378.5,448.833 378.5,449.5C 377.508,449.328 376.842,449.662 376.5,450.5C 375.508,450.328 374.842,450.662 374.5,451.5C 373.833,451.5 373.5,451.833 373.5,452.5C 372.508,452.328 371.842,452.662 371.5,453.5C 370.508,453.328 369.842,453.662 369.5,454.5C 368.833,454.5 368.5,454.833 368.5,455.5C 367.508,455.328 366.842,455.662 366.5,456.5C 365.508,456.328 364.842,456.662 364.5,457.5C 363.508,457.328 362.842,457.662 362.5,458.5C 361.508,458.328 360.842,458.662 360.5,459.5C 359.508,459.328 358.842,459.662 358.5,460.5C 356.847,460.66 355.514,461.326 354.5,462.5C 353.508,462.328 352.842,462.662 352.5,463.5C 351.508,463.328 350.842,463.662 350.5,464.5C 349.508,464.328 348.842,464.662 348.5,465.5C 347.508,465.328 346.842,465.662 346.5,466.5C 345.209,466.263 344.209,466.596 343.5,467.5C 342.508,467.328 341.842,467.662 341.5,468.5C 339.447,468.402 337.78,469.069 336.5,470.5C 335.209,470.263 334.209,470.596 333.5,471.5C 328.216,472.595 323.216,474.261 318.5,476.5C 316.901,476.232 315.568,476.566 314.5,477.5C 310.239,477.898 306.239,478.898 302.5,480.5C 300.585,480.216 298.919,480.549 297.5,481.5C 295.265,481.205 293.265,481.539 291.5,482.5C 250.37,488.187 210.37,483.854 171.5,469.5C 170.22,468.069 168.553,467.402 166.5,467.5C 158.539,463.519 150.539,459.519 142.5,455.5C 129.301,447.309 116.634,438.309 104.5,428.5C 104.5,427.833 104.167,427.5 103.5,427.5C 96.5,421.167 89.8333,414.5 83.5,407.5C 83.5,406.833 83.1667,406.5 82.5,406.5C 73.6944,396.037 65.6944,385.037 58.5,373.5C 52.2734,362.38 46.6067,351.047 41.5,339.5C 41.5979,337.447 40.9313,335.78 39.5,334.5C 13.565,254.447 25.565,180.78 75.5,113.5C 76.1667,113.5 76.5,113.167 76.5,112.5C 81.0596,107.727 85.3929,102.727 89.5,97.5C 90.1667,97.5 90.5,97.1667 90.5,96.5C 91.1667,96.5 91.5,96.1667 91.5,95.5C 92.1667,95.5 92.5,95.1667 92.5,94.5C 93.1667,94.5 93.5,94.1667 93.5,93.5C 94.1667,93.5 94.5,93.1667 94.5,92.5C 95.1667,92.5 95.5,92.1667 95.5,91.5C 96.1667,91.5 96.5,91.1667 96.5,90.5C 99.859,87.4715 103.192,84.4715 106.5,81.5C 107.167,81.5 107.5,81.1667 107.5,80.5C 111.857,77.1357 116.191,73.8024 120.5,70.5C 121.167,70.5 121.5,70.1667 121.5,69.5C 137.129,59.1864 153.462,50.1864 170.5,42.5C 185.667,37.2113 201.001,32.8779 216.5,29.5C 257.871,23.3228 298.205,27.3228 337.5,41.5 Z M 277.5,120.5 C 275.801,120.34 274.134,120.506 272.5,121C 274.847,121.436 277.181,121.936 279.5,122.5C 280.416,122.457 281.083,122.124 281.5,121.5C 283.898,121.259 285.898,121.926 287.5,123.5C 284.903,123.721 284.903,124.221 287.5,125C 288.872,125.402 290.205,125.902 291.5,126.5C 292.107,126.376 292.44,126.043 292.5,125.5C 295.089,125.461 297.089,126.461 298.5,128.5C 297.262,128.81 297.262,129.31 298.5,130C 302.696,132.261 306.696,134.761 310.5,137.5C 310.5,138.167 310.833,138.5 311.5,138.5C 311.973,139.906 312.973,140.573 314.5,140.5C 315.167,141.833 316.167,142.833 317.5,143.5C 317.427,145.027 318.094,146.027 319.5,146.5C 319.5,147.167 319.833,147.5 320.5,147.5C 323.239,151.304 325.739,155.304 328,159.5C 328.69,160.738 329.19,160.738 329.5,159.5C 331.104,160.287 331.771,161.62 331.5,163.5C 330.957,163.56 330.624,163.893 330.5,164.5C 331.333,166.167 332.167,167.833 333,169.5C 333.464,168.906 333.631,168.239 333.5,167.5C 334.931,168.78 335.598,170.447 335.5,172.5C 336.924,174.515 337.59,176.848 337.5,179.5C 336.876,179.917 336.543,180.584 336.5,181.5C 336.964,184.349 337.631,187.016 338.5,189.5C 338.198,192.059 338.532,194.393 339.5,196.5C 339.871,208.564 339.204,220.564 337.5,232.5C 337.52,233.726 337.853,234.726 338.5,235.5C 338.58,238.781 337.913,241.781 336.5,244.5C 336.167,239.167 335.833,239.167 335.5,244.5C 334.596,245.209 334.263,246.209 334.5,247.5C 328.701,267.097 319.701,285.097 307.5,301.5C 306.833,301.5 306.5,301.833 306.5,302.5C 305.197,304.142 303.864,305.809 302.5,307.5C 301.833,307.5 301.5,307.833 301.5,308.5C 299.738,309.262 298.738,310.596 298.5,312.5C 297.833,312.5 297.5,312.833 297.5,313.5C 296.232,315.905 295.565,318.572 295.5,321.5C 294.167,326.833 294.167,332.167 295.5,337.5C 295.328,338.492 295.662,339.158 296.5,339.5C 296.75,341.674 297.75,343.341 299.5,344.5C 299.833,346.833 301.167,348.167 303.5,348.5C 307.054,351.532 311.22,353.532 316,354.5C 316.765,354.43 317.265,354.097 317.5,353.5C 319.553,353.402 321.22,354.069 322.5,355.5C 319.903,355.721 319.903,356.221 322.5,357C 327.947,358.89 333.28,361.057 338.5,363.5C 339.107,363.376 339.44,363.043 339.5,362.5C 341.553,362.402 343.22,363.069 344.5,364.5C 343.761,364.369 343.094,364.536 342.5,365C 354.537,370.683 366.204,376.849 377.5,383.5C 377.5,384.167 377.833,384.5 378.5,384.5C 378.842,385.338 379.508,385.672 380.5,385.5C 380.5,386.167 380.833,386.5 381.5,386.5C 383.619,388.4 385.953,390.066 388.5,391.5C 388.973,392.906 389.973,393.573 391.5,393.5C 391.833,394.5 392.5,395.167 393.5,395.5C 393.5,396.167 393.833,396.5 394.5,396.5C 394.5,397.167 394.833,397.5 395.5,397.5C 397.5,400.167 399.833,402.5 402.5,404.5C 402.5,405.167 402.833,405.5 403.5,405.5C 406.202,408.881 408.535,412.548 410.5,416.5C 410.137,417.183 409.804,417.85 409.5,418.5C 407.596,418.738 406.262,419.738 405.5,421.5C 404.833,421.5 404.5,421.833 404.5,422.5C 403.167,423.167 402.167,424.167 401.5,425.5C 399.973,425.427 398.973,426.094 398.5,427.5C 380.097,442.378 359.764,454.211 337.5,463C 338.094,463.464 338.761,463.631 339.5,463.5C 338.22,464.931 336.553,465.598 334.5,465.5C 334.265,464.903 333.765,464.57 333,464.5C 325.751,466.973 318.584,469.306 311.5,471.5C 309.901,471.232 308.568,471.566 307.5,472.5C 305.901,472.232 304.568,472.566 303.5,473.5C 300.126,473.674 296.793,474.174 293.5,475C 295.134,475.494 296.801,475.66 298.5,475.5C 294.764,476.989 290.764,477.656 286.5,477.5C 263.445,481.571 240.445,481.238 217.5,476.5C 212.206,476.375 207.206,475.375 202.5,473.5C 203.873,473.657 205.207,473.49 206.5,473C 197.55,470.906 188.717,468.406 180,465.5C 179.235,465.57 178.735,465.903 178.5,466.5C 176.447,466.598 174.78,465.931 173.5,464.5C 176.097,464.279 176.097,463.779 173.5,463C 172.128,462.598 170.795,462.098 169.5,461.5C 168.893,461.624 168.56,461.957 168.5,462.5C 166.447,462.598 164.78,461.931 163.5,460.5C 164.239,460.631 164.906,460.464 165.5,460C 162.264,458.214 158.93,456.714 155.5,455.5C 155.158,454.662 154.492,454.328 153.5,454.5C 145.679,450.423 138.012,446.09 130.5,441.5C 130.5,440.833 130.167,440.5 129.5,440.5C 124.871,437.179 120.204,433.846 115.5,430.5C 115.027,429.094 114.027,428.427 112.5,428.5C 112.167,427.5 111.5,426.833 110.5,426.5C 110.5,425.833 110.167,425.5 109.5,425.5C 109.027,424.094 108.027,423.427 106.5,423.5C 105.5,421.833 104.167,420.5 102.5,419.5C 102.5,418.833 102.167,418.5 101.5,418.5C 101.5,417.833 101.167,417.5 100.5,417.5C 100.5,416.5 100.5,415.5 100.5,414.5C 102.4,412.381 104.066,410.047 105.5,407.5C 106.906,407.027 107.573,406.027 107.5,404.5C 110.167,402.5 112.5,400.167 114.5,397.5C 116.027,397.573 117.027,396.906 117.5,395.5C 119.191,394.136 120.858,392.803 122.5,391.5C 123.167,391.5 123.5,391.167 123.5,390.5C 128.523,387.133 133.523,383.8 138.5,380.5C 139.167,380.5 139.5,380.167 139.5,379.5C 141.153,379.34 142.486,378.674 143.5,377.5C 144.167,377.5 144.5,377.167 144.5,376.5C 152.78,372.36 161.114,368.193 169.5,364C 168.906,363.536 168.239,363.369 167.5,363.5C 168.78,362.069 170.447,361.402 172.5,361.5C 172.56,362.043 172.893,362.376 173.5,362.5C 175.167,361.667 176.833,360.833 178.5,360C 177.906,359.536 177.239,359.369 176.5,359.5C 177.78,358.069 179.447,357.402 181.5,357.5C 181.56,358.043 181.893,358.376 182.5,358.5C 188.128,356.235 193.794,354.069 199.5,352C 201.584,351.303 203.251,350.136 204.5,348.5C 206.027,348.573 207.027,347.906 207.5,346.5C 208.167,346.5 208.5,346.167 208.5,345.5C 209.167,345.5 209.5,345.167 209.5,344.5C 210.429,343.064 211.595,341.731 213,340.5C 213.692,339.563 213.525,338.897 212.5,338.5C 212.595,336.214 213.262,334.214 214.5,332.5C 214.351,333.552 214.517,334.552 215,335.5C 217.008,329.325 216.842,323.325 214.5,317.5C 214.737,316.209 214.404,315.209 213.5,314.5C 211.906,311.236 209.573,308.569 206.5,306.5C 206.573,304.973 205.906,303.973 204.5,303.5C 203.488,302.128 202.488,300.795 201.5,299.5C 201.5,298.833 201.167,298.5 200.5,298.5C 197.495,293.982 194.662,289.316 192,284.5C 191.31,283.262 190.81,283.262 190.5,284.5C 189.094,284.027 188.427,283.027 188.5,281.5C 189.043,281.44 189.376,281.107 189.5,280.5C 185.708,272.624 182.208,264.624 179,256.5C 178.536,257.094 178.369,257.761 178.5,258.5C 176.528,255.916 175.528,252.916 175.5,249.5C 176.097,249.265 176.43,248.765 176.5,248C 173.269,236.387 171.436,224.553 171,212.5C 170.501,216.821 170.334,221.154 170.5,225.5C 167.833,214.5 167.833,203.5 170.5,192.5C 170.334,197.179 170.501,201.845 171,206.5C 171.212,191.938 174.046,177.938 179.5,164.5C 180.338,164.158 180.672,163.492 180.5,162.5C 184.169,155.171 188.836,148.505 194.5,142.5C 195.167,142.5 195.5,142.167 195.5,141.5C 197.167,140.5 198.5,139.167 199.5,137.5C 201.027,137.573 202.027,136.906 202.5,135.5C 203.71,135.068 204.71,134.401 205.5,133.5C 206.167,133.5 206.5,133.167 206.5,132.5C 210.78,130.36 215.114,128.193 219.5,126C 218.906,125.536 218.239,125.369 217.5,125.5C 218.78,124.069 220.447,123.402 222.5,123.5C 222.735,124.097 223.235,124.43 224,124.5C 230.662,122.234 237.496,120.734 244.5,120C 242.19,119.503 239.857,119.337 237.5,119.5C 243.092,118.007 248.926,117.341 255,117.5C 262.818,117.166 270.318,118.166 277.5,120.5 Z M 206.5,131.5 C 206.5,131.833 206.5,132.167 206.5,132.5C 205.833,132.5 205.5,132.833 205.5,133.5C 204.833,133.5 204.167,133.5 203.5,133.5C 203.973,132.094 204.973,131.427 206.5,131.5 Z M 310.5,137.5 C 310.5,137.167 310.5,136.833 310.5,136.5C 312.027,136.427 313.027,137.094 313.5,138.5C 312.833,138.5 312.167,138.5 311.5,138.5C 310.833,138.5 310.5,138.167 310.5,137.5 Z M 195.5,140.5 C 195.5,140.833 195.5,141.167 195.5,141.5C 194.833,141.5 194.5,141.833 194.5,142.5C 194.167,142.5 193.833,142.5 193.5,142.5C 193.5,141.167 194.167,140.5 195.5,140.5 Z M 319.5,144.5 C 320.906,144.973 321.573,145.973 321.5,147.5C 321.167,147.5 320.833,147.5 320.5,147.5C 319.833,147.5 319.5,147.167 319.5,146.5C 319.5,145.833 319.5,145.167 319.5,144.5 Z M 180.5,160.5 C 180.5,161.167 180.5,161.833 180.5,162.5C 179.662,162.842 179.328,163.508 179.5,164.5C 179.167,164.5 178.833,164.5 178.5,164.5C 178.229,162.62 178.896,161.287 180.5,160.5 Z M 338.5,183.5 C 340.054,187.567 340.72,191.9 340.5,196.5C 340.167,196.5 339.833,196.5 339.5,196.5C 339.802,193.941 339.468,191.607 338.5,189.5C 338.5,187.5 338.5,185.5 338.5,183.5 Z M 335.5,244.5 C 335.833,244.5 336.167,244.5 336.5,244.5C 336.59,247.152 335.924,249.485 334.5,251.5C 334.5,250.167 334.5,248.833 334.5,247.5C 335.404,246.791 335.737,245.791 335.5,244.5 Z M 199.5,298.5 C 199.833,298.5 200.167,298.5 200.5,298.5C 201.167,298.5 201.5,298.833 201.5,299.5C 201.5,300.167 201.5,300.833 201.5,301.5C 200.094,301.027 199.427,300.027 199.5,298.5 Z M 307.5,301.5 C 307.833,301.5 308.167,301.5 308.5,301.5C 308.573,303.027 307.906,304.027 306.5,304.5C 306.5,303.833 306.5,303.167 306.5,302.5C 307.167,302.5 307.5,302.167 307.5,301.5 Z M 302.5,307.5 C 302.833,307.5 303.167,307.5 303.5,307.5C 303.573,309.027 302.906,310.027 301.5,310.5C 301.5,309.833 301.5,309.167 301.5,308.5C 302.167,308.5 302.5,308.167 302.5,307.5 Z M 298.5,312.5 C 298.833,312.5 299.167,312.5 299.5,312.5C 299.204,314.403 298.537,316.07 297.5,317.5C 297.5,316.167 297.5,314.833 297.5,313.5C 298.167,313.5 298.5,313.167 298.5,312.5 Z M 212.5,314.5 C 212.833,314.5 213.167,314.5 213.5,314.5C 213.263,315.791 213.596,316.791 214.5,317.5C 214.5,319.167 214.5,320.833 214.5,322.5C 213.232,320.095 212.565,317.428 212.5,314.5 Z M 295.5,321.5 C 295.833,321.5 296.167,321.5 296.5,321.5C 296.303,327.545 296.637,333.545 297.5,339.5C 297.167,339.5 296.833,339.5 296.5,339.5C 296.672,338.508 296.338,337.842 295.5,337.5C 295.5,332.167 295.5,326.833 295.5,321.5 Z M 209.5,342.5 C 209.5,343.167 209.5,343.833 209.5,344.5C 208.833,344.5 208.5,344.833 208.5,345.5C 207.833,345.5 207.5,345.833 207.5,346.5C 206.833,346.5 206.167,346.5 205.5,346.5C 206.5,344.833 207.833,343.5 209.5,342.5 Z M 144.5,375.5 C 144.5,375.833 144.5,376.167 144.5,376.5C 143.833,376.5 143.5,376.833 143.5,377.5C 142.833,377.5 142.167,377.5 141.5,377.5C 141.973,376.094 142.973,375.427 144.5,375.5 Z M 139.5,378.5 C 139.5,378.833 139.5,379.167 139.5,379.5C 138.833,379.5 138.5,379.833 138.5,380.5C 137.833,380.5 137.167,380.5 136.5,380.5C 136.973,379.094 137.973,378.427 139.5,378.5 Z M 377.5,383.5 C 377.5,383.167 377.5,382.833 377.5,382.5C 379.027,382.427 380.027,383.094 380.5,384.5C 379.833,384.5 379.167,384.5 378.5,384.5C 377.833,384.5 377.5,384.167 377.5,383.5 Z M 380.5,385.5 C 380.5,385.167 380.5,384.833 380.5,384.5C 382.027,384.427 383.027,385.094 383.5,386.5C 382.833,386.5 382.167,386.5 381.5,386.5C 380.833,386.5 380.5,386.167 380.5,385.5 Z M 123.5,389.5 C 123.5,389.833 123.5,390.167 123.5,390.5C 122.833,390.5 122.5,390.833 122.5,391.5C 121.833,391.5 121.167,391.5 120.5,391.5C 120.973,390.094 121.973,389.427 123.5,389.5 Z M 393.5,395.5 C 393.5,395.167 393.5,394.833 393.5,394.5C 395.404,394.738 396.738,395.738 397.5,397.5C 396.833,397.5 396.167,397.5 395.5,397.5C 394.833,397.5 394.5,397.167 394.5,396.5C 393.833,396.5 393.5,396.167 393.5,395.5 Z M 402.5,402.5 C 403.906,402.973 404.573,403.973 404.5,405.5C 404.167,405.5 403.833,405.5 403.5,405.5C 402.833,405.5 402.5,405.167 402.5,404.5C 402.5,403.833 402.5,403.167 402.5,402.5 Z M 98.5,417.5 C 99.1667,417.5 99.8333,417.5 100.5,417.5C 101.167,417.5 101.5,417.833 101.5,418.5C 102.167,418.5 102.5,418.833 102.5,419.5C 102.5,419.833 102.5,420.167 102.5,420.5C 100.596,420.262 99.2623,419.262 98.5,417.5 Z M 405.5,421.5 C 406.167,421.5 406.833,421.5 407.5,421.5C 407.027,422.906 406.027,423.573 404.5,423.5C 404.5,423.167 404.5,422.833 404.5,422.5C 405.167,422.5 405.5,422.167 405.5,421.5 Z M 107.5,425.5 C 108.167,425.5 108.833,425.5 109.5,425.5C 110.167,425.5 110.5,425.833 110.5,426.5C 110.5,426.833 110.5,427.167 110.5,427.5C 108.973,427.573 107.973,426.906 107.5,425.5 Z M 127.5,440.5 C 128.167,440.5 128.833,440.5 129.5,440.5C 130.167,440.5 130.5,440.833 130.5,441.5C 130.5,441.833 130.5,442.167 130.5,442.5C 128.973,442.573 127.973,441.906 127.5,440.5 Z M 151.5,454.5 C 152.167,454.5 152.833,454.5 153.5,454.5C 153.842,455.338 154.508,455.672 155.5,455.5C 155.5,455.833 155.5,456.167 155.5,456.5C 153.62,456.771 152.287,456.104 151.5,454.5 Z M 311.5,471.5 C 312.833,471.5 314.167,471.5 315.5,471.5C 311.837,473.416 307.837,474.416 303.5,474.5C 303.5,474.167 303.5,473.833 303.5,473.5C 305.099,473.768 306.432,473.434 307.5,472.5C 309.099,472.768 310.432,472.434 311.5,471.5 Z"/></g>
<g><path style="opacity:0.01" fill="#d6d6d7" d="M 216.5,28.5 C 218.265,27.5386 220.265,27.2053 222.5,27.5C 220.735,28.4614 218.735,28.7947 216.5,28.5 Z"/></g>
<g><path style="opacity:0.009" fill="#d6d7d7" d="M 216.5,28.5 C 216.5,28.8333 216.5,29.1667 216.5,29.5C 209.833,29.1667 209.833,28.8333 216.5,28.5 Z"/></g>
<g><path style="opacity:0.011" fill="#d6d6d7" d="M 206.5,30.5 C 207.601,29.4017 208.934,29.235 210.5,30C 209.207,30.49 207.873,30.6567 206.5,30.5 Z"/></g>
<g><path style="opacity:0.01" fill="#d6d7d7" d="M 190.5,34.5 C 191.251,33.4265 192.251,33.2599 193.5,34C 192.552,34.4828 191.552,34.6495 190.5,34.5 Z"/></g>
<g><path style="opacity:0.01" fill="#d7d7d8" d="M 170.5,41.5 C 170.897,40.475 171.563,40.3083 172.5,41C 171.906,41.4643 171.239,41.631 170.5,41.5 Z"/></g>
<g><path style="opacity:0.012" fill="#d6d7d7" d="M 337.5,41.5 C 337.897,40.475 338.563,40.3083 339.5,41C 338.906,41.4643 338.239,41.631 337.5,41.5 Z"/></g>
<g><path style="opacity:0.012" fill="#d6d6d7" d="M 170.5,41.5 C 170.5,41.8333 170.5,42.1667 170.5,42.5C 167.833,42.1667 167.833,41.8333 170.5,41.5 Z"/></g>
<g><path style="opacity:0.01" fill="#d7d7d8" d="M 340.5,42.5 C 340.897,41.475 341.563,41.3083 342.5,42C 341.906,42.4643 341.239,42.631 340.5,42.5 Z"/></g>
<g><path style="opacity:0.01" fill="#d7d7d7" d="M 165.5,43.5 C 165.897,42.475 166.563,42.3083 167.5,43C 166.906,43.4643 166.239,43.631 165.5,43.5 Z"/></g>
<g><path style="opacity:0.008" fill="#d7d7d7" d="M 121.5,69.5 C 120.833,69.5 120.5,69.8333 120.5,70.5C 118.025,70.2533 118.025,69.5866 120.5,68.5C 121.107,68.6236 121.44,68.9569 121.5,69.5 Z"/></g>
<g><path style="opacity:0.01" fill="#d5d5d7" d="M 400.5,78.5 C 401.497,77.2875 402.497,77.4542 403.5,79C 402.906,79.4643 402.239,79.631 401.5,79.5C 400.833,79.5 400.5,79.1667 400.5,78.5 Z"/></g>
<g><path style="opacity:0.008" fill="#d7d7d8" d="M 107.5,80.5 C 106.833,80.5 106.5,80.8333 106.5,81.5C 104.025,81.2533 104.025,80.5866 106.5,79.5C 107.107,79.6236 107.44,79.9569 107.5,80.5 Z"/></g>
<g><path style="opacity:0.008" fill="#d6d6d7" d="M 407.5,84.5 C 409.07,83.4407 410.403,83.9407 411.5,86C 410.906,86.4643 410.239,86.631 409.5,86.5C 408.833,86.5 408.5,86.1667 408.5,85.5C 407.833,85.5 407.5,85.1667 407.5,84.5 Z"/></g>
<g><path style="opacity:0.008" fill="#d7d7d7" d="M 96.5,90.5 C 95.8333,90.5 95.5,90.8333 95.5,91.5C 94.8333,91.5 94.5,91.8333 94.5,92.5C 93.8333,92.5 93.5,92.8333 93.5,93.5C 92.8333,93.5 92.5,93.8333 92.5,94.5C 91.8333,94.5 91.5,94.8333 91.5,95.5C 90.8333,95.5 90.5,95.8333 90.5,96.5C 89.8333,96.5 89.5,96.8333 89.5,97.5C 88.475,97.1034 88.3083,96.4368 89,95.5C 90.8333,93.6667 92.6667,91.8333 94.5,90C 95.4368,89.3083 96.1034,89.475 96.5,90.5 Z"/></g>
<g><path style="opacity:0.008" fill="#d6d6d8" d="M 426.5,103.5 C 425.833,103.5 425.5,103.167 425.5,102.5C 424.833,102.5 424.5,102.167 424.5,101.5C 425.286,99.4076 426.286,99.7409 427.5,102.5C 427.376,103.107 427.043,103.44 426.5,103.5 Z"/></g>
<g><path style="opacity:0.01" fill="#d6d6d8" d="M 432.5,110.5 C 431.833,110.5 431.5,110.167 431.5,109.5C 431.747,107.025 432.413,107.025 433.5,109.5C 433.376,110.107 433.043,110.44 432.5,110.5 Z"/></g>
<g><path style="opacity:0.004" fill="#d3d3d6" d="M 76.5,112.5 C 75.8333,112.5 75.5,112.833 75.5,113.5C 74.2875,112.503 74.4542,111.503 76,110.5C 76.4643,111.094 76.631,111.761 76.5,112.5 Z"/></g>
<g><path style="opacity:0.009" fill="#d7d7d8" d="M 200.5,135.5 C 201.167,135.5 201.833,135.5 202.5,135.5C 202.027,136.906 201.027,137.573 199.5,137.5C 199.5,137.167 199.5,136.833 199.5,136.5C 200.167,136.5 200.5,136.167 200.5,135.5 Z"/></g>
<g><path style="opacity:0.007" fill="#d6d6d7" d="M 311.5,138.5 C 312.167,138.5 312.833,138.5 313.5,138.5C 313.5,139.167 313.833,139.5 314.5,139.5C 314.5,139.833 314.5,140.167 314.5,140.5C 312.973,140.573 311.973,139.906 311.5,138.5 Z"/></g>
<g><path style="opacity:0.007" fill="#d7d6d8" d="M 317.5,143.5 C 317.833,143.5 318.167,143.5 318.5,143.5C 318.5,144.167 318.833,144.5 319.5,144.5C 319.5,145.167 319.5,145.833 319.5,146.5C 318.094,146.027 317.427,145.027 317.5,143.5 Z"/></g>
<g><path style="opacity:0.01" fill="#d6d6d8" d="M 468.5,168.5 C 468.167,168.5 467.833,168.5 467.5,168.5C 467.833,165.833 468.167,165.833 468.5,168.5 Z"/></g>
<g><path style="opacity:0.01" fill="#d6d7d7" d="M 468.5,168.5 C 469.525,168.897 469.692,169.563 469,170.5C 468.536,169.906 468.369,169.239 468.5,168.5 Z"/></g>
<g><path style="opacity:0.01" fill="#d6d6d8" d="M 40.5,169.5 C 41.525,169.897 41.6917,170.563 41,171.5C 40.5357,170.906 40.369,170.239 40.5,169.5 Z"/></g>
<g><path style="opacity:0.008" fill="#d6d6d8" d="M 471.5,176.5 C 471.167,176.5 470.833,176.5 470.5,176.5C 470.833,172.5 471.167,172.5 471.5,176.5 Z"/></g>
<g><path style="opacity:0.012" fill="#d6d7d7" d="M 471.5,176.5 C 472.525,176.897 472.692,177.563 472,178.5C 471.536,177.906 471.369,177.239 471.5,176.5 Z"/></g>
<g><path style="opacity:0.012" fill="#d6d7d7" d="M 36.5,182.5 C 36.369,181.761 36.5357,181.094 37,180.5C 37.6917,181.437 37.525,182.103 36.5,182.5 Z"/></g>
<g><path style="opacity:0.009" fill="#d7d7d7" d="M 36.5,182.5 C 36.6495,183.552 36.4828,184.552 36,185.5C 35.2599,184.251 35.4265,183.251 36.5,182.5 Z"/></g>
<g><path style="opacity:0.01" fill="#d7d7d7" d="M 31.5,199.5 C 31.3505,198.448 31.5172,197.448 32,196.5C 32.7401,197.749 32.5735,198.749 31.5,199.5 Z"/></g>
<g><path style="opacity:0.009" fill="#d6d6d7" d="M 31.5,199.5 C 31.6567,200.873 31.49,202.207 31,203.5C 30.235,201.934 30.4017,200.601 31.5,199.5 Z"/></g>
<g><path style="opacity:0.009" fill="#d7d7d8" d="M 26.5,219.5 C 27.6225,221.288 27.7891,223.288 27,225.5C 26.5045,223.527 26.3379,221.527 26.5,219.5 Z"/></g>
<g><path style="opacity:0.009" fill="#d7d7d8" d="M 484.5,231.5 C 484.167,231.5 483.833,231.5 483.5,231.5C 483.833,220.833 484.167,220.833 484.5,231.5 Z"/></g>
<g><path style="opacity:0.01" fill="#d7d7d8" d="M 484.5,231.5 C 485.483,235.298 485.817,239.298 485.5,243.5C 484.517,239.702 484.183,235.702 484.5,231.5 Z"/></g>
<g><path style="opacity:0.004" fill="#d7d6d7" d="M 485.5,243.5 C 486.656,251.323 486.823,259.323 486,267.5C 485.5,259.507 485.334,251.507 485.5,243.5 Z"/></g>
<g><path style="opacity:0.01" fill="#d7d6d8" d="M 484.5,280.5 C 484.334,276.486 484.501,272.486 485,268.5C 485.812,272.689 485.645,276.689 484.5,280.5 Z"/></g>
<g><path style="opacity:0.01" fill="#d6d6d8" d="M 484.5,280.5 C 484.806,283.385 484.473,286.052 483.5,288.5C 483.194,285.615 483.527,282.948 484.5,280.5 Z"/></g>
<g><path style="opacity:0.01" fill="#d6d6d8" d="M 482.5,288.5 C 482.833,288.5 483.167,288.5 483.5,288.5C 483.167,296.5 482.833,296.5 482.5,288.5 Z"/></g>
<g><path style="opacity:0.008" fill="#d6d6d8" d="M 204.5,303.5 C 205.906,303.973 206.573,304.973 206.5,306.5C 206.167,306.5 205.833,306.5 205.5,306.5C 205.5,305.833 205.167,305.5 204.5,305.5C 204.5,304.833 204.5,304.167 204.5,303.5 Z"/></g>
<g><path style="opacity:0.006" fill="#d6d6d7" d="M 301.5,308.5 C 301.5,309.167 301.5,309.833 301.5,310.5C 300.833,310.5 300.5,310.833 300.5,311.5C 299.833,311.5 299.5,311.833 299.5,312.5C 299.167,312.5 298.833,312.5 298.5,312.5C 298.738,310.596 299.738,309.262 301.5,308.5 Z"/></g>
<g><path style="opacity:0.01" fill="#d6d6d7" d="M 478.5,309.5 C 479.833,310.833 479.833,312.167 478.5,313.5C 478.5,312.167 478.5,310.833 478.5,309.5 Z"/></g>
<g><path style="opacity:0.01" fill="#d6d6d7" d="M 477.5,313.5 C 477.833,313.5 478.167,313.5 478.5,313.5C 478.167,317.5 477.833,317.5 477.5,313.5 Z"/></g>
<g><path style="opacity:0.01" fill="#d7d6d8" d="M 476.5,320.5 C 476.351,319.448 476.517,318.448 477,317.5C 477.74,318.749 477.573,319.749 476.5,320.5 Z"/></g>
<g><path style="opacity:0.01" fill="#d6d7d7" d="M 475.5,320.5 C 475.833,320.5 476.167,320.5 476.5,320.5C 476.737,321.791 476.404,322.791 475.5,323.5C 475.5,322.5 475.5,321.5 475.5,320.5 Z"/></g>
<g><path style="opacity:0.009" fill="#d6d6d8" d="M 474.5,323.5 C 474.833,323.5 475.167,323.5 475.5,323.5C 475.737,324.791 475.404,325.791 474.5,326.5C 474.5,325.5 474.5,324.5 474.5,323.5 Z"/></g>
<g><path style="opacity:0.009" fill="#d6d6d7" d="M 473.5,326.5 C 473.833,326.5 474.167,326.5 474.5,326.5C 474.737,327.791 474.404,328.791 473.5,329.5C 473.5,328.5 473.5,327.5 473.5,326.5 Z"/></g>
<g><path style="opacity:0.01" fill="#d8d8d8" d="M 472.5,329.5 C 472.833,329.5 473.167,329.5 473.5,329.5C 473.737,330.791 473.404,331.791 472.5,332.5C 472.5,331.5 472.5,330.5 472.5,329.5 Z"/></g>
<g><path style="opacity:0.009" fill="#d7d7d9" d="M 471.5,332.5 C 471.833,332.5 472.167,332.5 472.5,332.5C 472.737,333.791 472.404,334.791 471.5,335.5C 471.5,334.5 471.5,333.5 471.5,332.5 Z"/></g>
<g><path style="opacity:0.012" fill="#d6d7d7" d="M 39.5,334.5 C 39.631,335.239 39.4643,335.906 39,336.5C 38.3083,335.563 38.475,334.897 39.5,334.5 Z"/></g>
<g><path style="opacity:0.012" fill="#d6d7d7" d="M 470.5,335.5 C 470.833,335.5 471.167,335.5 471.5,335.5C 471.167,338.167 470.833,338.167 470.5,335.5 Z"/></g>
<g><path style="opacity:0.01" fill="#d7d7d8" d="M 40.5,339.5 C 39.475,339.103 39.3083,338.437 40,337.5C 40.4643,338.094 40.631,338.761 40.5,339.5 Z"/></g>
<g><path style="opacity:0.012" fill="#d6d6d8" d="M 469.5,340.5 C 469.369,339.761 469.536,339.094 470,338.5C 470.692,339.437 470.525,340.103 469.5,340.5 Z"/></g>
<g><path style="opacity:0.012" fill="#d6d7d7" d="M 40.5,339.5 C 40.8333,339.5 41.1667,339.5 41.5,339.5C 41.1667,342.167 40.8333,342.167 40.5,339.5 Z"/></g>
<g><path style="opacity:0.012" fill="#d6d7d7" d="M 468.5,340.5 C 468.833,340.5 469.167,340.5 469.5,340.5C 469.167,343.167 468.833,343.167 468.5,340.5 Z"/></g>
<g><path style="opacity:0.01" fill="#d7d7d8" d="M 41.5,342.5 C 42.525,342.897 42.6917,343.563 42,344.5C 41.5357,343.906 41.369,343.239 41.5,342.5 Z"/></g>
<g><path style="opacity:0.01" fill="#d6d7d7" d="M 467.5,345.5 C 467.369,344.761 467.536,344.094 468,343.5C 468.692,344.437 468.525,345.103 467.5,345.5 Z"/></g>
<g><path style="opacity:0.006" fill="#d5d5d7" d="M 299.5,344.5 C 299.833,344.5 300.167,344.5 300.5,344.5C 300.5,345.167 300.833,345.5 301.5,345.5C 301.5,346.167 301.833,346.5 302.5,346.5C 302.5,347.167 302.833,347.5 303.5,347.5C 303.5,347.833 303.5,348.167 303.5,348.5C 301.167,348.167 299.833,346.833 299.5,344.5 Z"/></g>
<g><path style="opacity:0.01" fill="#d6d7d7" d="M 466.5,345.5 C 466.833,345.5 467.167,345.5 467.5,345.5C 467.672,346.492 467.338,347.158 466.5,347.5C 466.5,346.833 466.5,346.167 466.5,345.5 Z"/></g>
<g><path style="opacity:0.006" fill="#d7d6d8" d="M 205.5,346.5 C 206.167,346.5 206.833,346.5 207.5,346.5C 207.027,347.906 206.027,348.573 204.5,348.5C 204.5,348.167 204.5,347.833 204.5,347.5C 205.167,347.5 205.5,347.167 205.5,346.5 Z"/></g>
<g><path style="opacity:0.01" fill="#d6d7d7" d="M 465.5,347.5 C 465.833,347.5 466.167,347.5 466.5,347.5C 466.167,350.167 465.833,350.167 465.5,347.5 Z"/></g>
<g><path style="opacity:0.01" fill="#d6d7d7" d="M 464.5,352.5 C 464.369,351.761 464.536,351.094 465,350.5C 465.692,351.437 465.525,352.103 464.5,352.5 Z"/></g>
<g><path style="opacity:0.01" fill="#d7d7d8" d="M 463.5,352.5 C 463.833,352.5 464.167,352.5 464.5,352.5C 464.672,353.492 464.338,354.158 463.5,354.5C 463.5,353.833 463.5,353.167 463.5,352.5 Z"/></g>
<g><path style="opacity:0.01" fill="#d6d7d7" d="M 462.5,354.5 C 462.833,354.5 463.167,354.5 463.5,354.5C 463.672,355.492 463.338,356.158 462.5,356.5C 462.5,355.833 462.5,355.167 462.5,354.5 Z"/></g>
<g><path style="opacity:0.01" fill="#d7d7d8" d="M 461.5,356.5 C 461.833,356.5 462.167,356.5 462.5,356.5C 462.672,357.492 462.338,358.158 461.5,358.5C 461.5,357.833 461.5,357.167 461.5,356.5 Z"/></g>
<g><path style="opacity:0.01" fill="#d5d6d7" d="M 460.5,358.5 C 460.833,358.5 461.167,358.5 461.5,358.5C 461.672,359.492 461.338,360.158 460.5,360.5C 460.5,359.833 460.5,359.167 460.5,358.5 Z"/></g>
<g><path style="opacity:0.01" fill="#d7d7d8" d="M 459.5,360.5 C 459.833,360.5 460.167,360.5 460.5,360.5C 460.672,361.492 460.338,362.158 459.5,362.5C 459.5,361.833 459.5,361.167 459.5,360.5 Z"/></g>
<g><path style="opacity:0.01" fill="#d6d7d7" d="M 458.5,362.5 C 458.833,362.5 459.167,362.5 459.5,362.5C 459.672,363.492 459.338,364.158 458.5,364.5C 458.5,363.833 458.5,363.167 458.5,362.5 Z"/></g>
<g><path style="opacity:0.016" fill="#d7d8d7" d="M 457.5,364.5 C 457.833,364.5 458.167,364.5 458.5,364.5C 458.315,365.17 457.981,365.17 457.5,364.5 Z"/></g>
<g><path style="opacity:0.008" fill="#d5d5d7" d="M 456.5,365.5 C 456.833,365.5 457.167,365.5 457.5,365.5C 457.672,366.492 457.338,367.158 456.5,367.5C 456.5,366.833 456.5,366.167 456.5,365.5 Z"/></g>
<g><path style="opacity:0.01" fill="#d7d7d8" d="M 455.5,367.5 C 455.833,367.5 456.167,367.5 456.5,367.5C 456.672,368.492 456.338,369.158 455.5,369.5C 455.5,368.833 455.5,368.167 455.5,367.5 Z"/></g>
<g><path style="opacity:0.01" fill="#d7d7d8" d="M 454.5,369.5 C 454.833,369.5 455.167,369.5 455.5,369.5C 455.672,370.492 455.338,371.158 454.5,371.5C 454.5,370.833 454.5,370.167 454.5,369.5 Z"/></g>
<g><path style="opacity:0.016" fill="#d6d7d7" d="M 453.5,371.5 C 453.833,371.5 454.167,371.5 454.5,371.5C 454.315,372.17 453.981,372.17 453.5,371.5 Z"/></g>
<g><path style="opacity:0.012" fill="#d5d5d7" d="M 452.5,372.5 C 452.833,372.5 453.167,372.5 453.5,372.5C 453.672,373.492 453.338,374.158 452.5,374.5C 452.5,373.833 452.5,373.167 452.5,372.5 Z"/></g>
<g><path style="opacity:0.012" fill="#d6d6d6" d="M 58.5,373.5 C 58.631,374.239 58.4643,374.906 58,375.5C 57.3083,374.563 57.475,373.897 58.5,373.5 Z"/></g>
<g><path style="opacity:0.01" fill="#d7d6d8" d="M 451.5,374.5 C 451.833,374.5 452.167,374.5 452.5,374.5C 452.672,375.492 452.338,376.158 451.5,376.5C 451.5,375.833 451.5,375.167 451.5,374.5 Z"/></g>
<g><path style="opacity:0.016" fill="#d6d7d7" d="M 450.5,376.5 C 450.833,376.5 451.167,376.5 451.5,376.5C 451.315,377.17 450.981,377.17 450.5,376.5 Z"/></g>
<g><path style="opacity:0.01" fill="#d6d6d8" d="M 449.5,377.5 C 449.833,377.5 450.167,377.5 450.5,377.5C 450.672,378.492 450.338,379.158 449.5,379.5C 449.5,378.833 449.5,378.167 449.5,377.5 Z"/></g>
<g><path style="opacity:0.016" fill="#d6d7d7" d="M 448.5,379.5 C 448.833,379.5 449.167,379.5 449.5,379.5C 449.315,380.17 448.981,380.17 448.5,379.5 Z"/></g>
<g><path style="opacity:0.008" fill="#d5d5d7" d="M 447.5,380.5 C 447.833,380.5 448.167,380.5 448.5,380.5C 448.672,381.492 448.338,382.158 447.5,382.5C 447.5,381.833 447.5,381.167 447.5,380.5 Z"/></g>
<g><path style="opacity:0.016" fill="#d6d7d7" d="M 446.5,382.5 C 446.833,382.5 447.167,382.5 447.5,382.5C 447.315,383.17 446.981,383.17 446.5,382.5 Z"/></g>
<g><path style="opacity:0.006" fill="#d6d7d7" d="M 445.5,383.5 C 445.833,383.5 446.167,383.5 446.5,383.5C 446.672,384.492 446.338,385.158 445.5,385.5C 445.5,384.833 445.5,384.167 445.5,383.5 Z"/></g>
<g><path style="opacity:0.016" fill="#d6d7d6" d="M 444.5,385.5 C 444.833,385.5 445.167,385.5 445.5,385.5C 445.315,386.17 444.981,386.17 444.5,385.5 Z"/></g>
<g><path style="opacity:0.01" fill="#d7d6d6" d="M 443.5,386.5 C 443.833,386.5 444.167,386.5 444.5,386.5C 444.672,387.492 444.338,388.158 443.5,388.5C 443.5,387.833 443.5,387.167 443.5,386.5 Z"/></g>
<g><path style="opacity:0.016" fill="#d6d7d7" d="M 442.5,388.5 C 442.833,388.5 443.167,388.5 443.5,388.5C 443.315,389.17 442.981,389.17 442.5,388.5 Z"/></g>
<g><path style="opacity:0.008" fill="#d6d6d7" d="M 388.5,391.5 C 389.167,391.5 389.833,391.5 390.5,391.5C 390.5,392.167 390.833,392.5 391.5,392.5C 391.5,392.833 391.5,393.167 391.5,393.5C 389.973,393.573 388.973,392.906 388.5,391.5 Z"/></g>
<g><path style="opacity:0.007" fill="#d6d6d7" d="M 115.5,395.5 C 116.167,395.5 116.833,395.5 117.5,395.5C 117.027,396.906 116.027,397.573 114.5,397.5C 114.5,397.167 114.5,396.833 114.5,396.5C 115.167,396.5 115.5,396.167 115.5,395.5 Z"/></g>
<g><path style="opacity:0.007" fill="#d6d6d8" d="M 395.5,397.5 C 396.167,397.5 396.833,397.5 397.5,397.5C 397.5,398.167 397.833,398.5 398.5,398.5C 398.5,399.167 398.833,399.5 399.5,399.5C 399.5,400.167 399.833,400.5 400.5,400.5C 400.5,401.167 400.833,401.5 401.5,401.5C 401.5,402.167 401.833,402.5 402.5,402.5C 402.5,403.167 402.5,403.833 402.5,404.5C 399.833,402.5 397.5,400.167 395.5,397.5 Z"/></g>
<g><path style="opacity:0.016" fill="#d6d7d7" d="M 435.5,397.5 C 436.833,398.167 436.833,398.167 435.5,397.5 Z"/></g>
<g><path style="opacity:0.016" fill="#d6d7d6" d="M 431.5,402.5 C 432.833,403.167 432.833,403.167 431.5,402.5 Z"/></g>
<g><path style="opacity:0.009" fill="#d7d6d8" d="M 430.5,403.5 C 430.833,403.5 431.167,403.5 431.5,403.5C 430.968,406.46 430.301,406.793 429.5,404.5C 430.167,404.5 430.5,404.167 430.5,403.5 Z"/></g>
<g><path style="opacity:0.007" fill="#d7d7d7" d="M 106.5,404.5 C 106.833,404.5 107.167,404.5 107.5,404.5C 107.573,406.027 106.906,407.027 105.5,407.5C 105.5,406.833 105.5,406.167 105.5,405.5C 106.167,405.5 106.5,405.167 106.5,404.5 Z"/></g>
<g><path style="opacity:0.008" fill="#d7d6d7" d="M 82.5,406.5 C 83.1667,406.5 83.5,406.833 83.5,407.5C 83.2533,409.975 82.5866,409.975 81.5,407.5C 81.6236,406.893 81.9569,406.56 82.5,406.5 Z"/></g>
<g><path style="opacity:0.016" fill="#d6d7d7" d="M 426.5,408.5 C 427.833,409.167 427.833,409.167 426.5,408.5 Z"/></g>
<g><path style="opacity:0.016" fill="#d6d7d7" d="M 425.5,409.5 C 425.833,409.5 426.167,409.5 426.5,409.5C 426.315,410.17 425.981,410.17 425.5,409.5 Z"/></g>
<g><path style="opacity:0.016" fill="#d7d8d8" d="M 424.5,410.5 C 424.833,410.5 425.167,410.5 425.5,410.5C 425.315,411.17 424.981,411.17 424.5,410.5 Z"/></g>
<g><path style="opacity:0.016" fill="#d6d7d8" d="M 423.5,411.5 C 423.833,411.5 424.167,411.5 424.5,411.5C 424.315,412.17 423.981,412.17 423.5,411.5 Z"/></g>
<g><path style="opacity:0.016" fill="#d6d7d7" d="M 422.5,412.5 C 422.833,412.5 423.167,412.5 423.5,412.5C 423.315,413.17 422.981,413.17 422.5,412.5 Z"/></g>
<g><path style="opacity:0.007" fill="#d6d6d7" d="M 421.5,413.5 C 421.833,413.5 422.167,413.5 422.5,413.5C 420.167,417.833 416.833,421.167 412.5,423.5C 412.5,423.167 412.5,422.833 412.5,422.5C 413.167,422.5 413.5,422.167 413.5,421.5C 414.167,421.5 414.5,421.167 414.5,420.5C 415.167,420.5 415.5,420.167 415.5,419.5C 416.167,419.5 416.5,419.167 416.5,418.5C 417.167,418.5 417.5,418.167 417.5,417.5C 418.167,417.5 418.5,417.167 418.5,416.5C 419.167,416.5 419.5,416.167 419.5,415.5C 420.167,415.5 420.5,415.167 420.5,414.5C 421.167,414.5 421.5,414.167 421.5,413.5 Z"/></g>
<g><path style="opacity:0.009" fill="#d7d7d8" d="M 99.5,414.5 C 99.8333,414.5 100.167,414.5 100.5,414.5C 100.5,415.5 100.5,416.5 100.5,417.5C 99.8333,417.5 99.1667,417.5 98.5,417.5C 98.5,417.167 98.5,416.833 98.5,416.5C 99.3382,416.158 99.6716,415.492 99.5,414.5 Z"/></g>
<g><path style="opacity:0.008" fill="#d9d9d9" d="M 409.5,418.5 C 409.5,418.833 409.5,419.167 409.5,419.5C 408.833,419.5 408.5,419.833 408.5,420.5C 407.833,420.5 407.5,420.833 407.5,421.5C 406.833,421.5 406.167,421.5 405.5,421.5C 406.262,419.738 407.596,418.738 409.5,418.5 Z"/></g>
<g><path style="opacity:0.008" fill="#d7d7d8" d="M 106.5,424.5 C 106.5,424.167 106.5,423.833 106.5,423.5C 108.027,423.427 109.027,424.094 109.5,425.5C 108.833,425.5 108.167,425.5 107.5,425.5C 107.5,424.833 107.167,424.5 106.5,424.5 Z"/></g>
<g><path style="opacity:0.016" fill="#d6d7d7" d="M 411.5,423.5 C 411.833,423.5 412.167,423.5 412.5,423.5C 412.315,424.17 411.981,424.17 411.5,423.5 Z"/></g>
<g><path style="opacity:0.016" fill="#d6d7d7" d="M 410.5,424.5 C 410.833,424.5 411.167,424.5 411.5,424.5C 411.315,425.17 410.981,425.17 410.5,424.5 Z"/></g>
<g><path style="opacity:0.009" fill="#d7d7d8" d="M 401.5,425.5 C 401.5,425.833 401.5,426.167 401.5,426.5C 400.833,426.5 400.5,426.833 400.5,427.5C 399.833,427.5 399.167,427.5 398.5,427.5C 398.973,426.094 399.973,425.427 401.5,425.5 Z"/></g>
<g><path style="opacity:0.02" fill="#d6d7d8" d="M 409.5,425.5 C 409.833,425.5 410.167,425.5 410.5,425.5C 410.315,426.17 409.981,426.17 409.5,425.5 Z"/></g>
<g><path style="opacity:0.016" fill="#d6d7d7" d="M 408.5,426.5 C 408.833,426.5 409.167,426.5 409.5,426.5C 409.315,427.17 408.981,427.17 408.5,426.5 Z"/></g>
<g><path style="opacity:0.008" fill="#d7d6d7" d="M 103.5,427.5 C 104.167,427.5 104.5,427.833 104.5,428.5C 103.503,429.713 102.503,429.546 101.5,428C 102.094,427.536 102.761,427.369 103.5,427.5 Z"/></g>
<g><path style="opacity:0.016" fill="#d6d7d7" d="M 407.5,427.5 C 407.833,427.5 408.167,427.5 408.5,427.5C 408.315,428.17 407.981,428.17 407.5,427.5 Z"/></g>
<g><path style="opacity:0.008" fill="#d6d6d8" d="M 112.5,429.5 C 112.5,429.167 112.5,428.833 112.5,428.5C 114.027,428.427 115.027,429.094 115.5,430.5C 114.833,430.5 114.167,430.5 113.5,430.5C 113.5,429.833 113.167,429.5 112.5,429.5 Z"/></g>
<g><path style="opacity:0.016" fill="#d6d7d8" d="M 402.5,431.5 C 403.833,432.167 403.833,432.167 402.5,431.5 Z"/></g>
<g><path style="opacity:0.016" fill="#d6d7d7" d="M 401.5,432.5 C 401.833,432.5 402.167,432.5 402.5,432.5C 402.315,433.17 401.981,433.17 401.5,432.5 Z"/></g>
<g><path style="opacity:0.016" fill="#d5d6d6" d="M 396.5,436.5 C 397.833,437.167 397.833,437.167 396.5,436.5 Z"/></g>
<g><path style="opacity:0.012" fill="#d6d7d7" d="M 395.5,437.5 C 395.833,437.5 396.167,437.5 396.5,437.5C 396.315,438.17 395.981,438.17 395.5,437.5 Z"/></g>
<g><path style="opacity:0.008" fill="#d6d6d7" d="M 393.5,439.5 C 393.5,439.167 393.5,438.833 393.5,438.5C 394.167,438.5 394.833,438.5 395.5,438.5C 395.158,439.338 394.492,439.672 393.5,439.5 Z"/></g>
<g><path style="opacity:0.016" fill="#d6d7d7" d="M 392.5,439.5 C 392.833,439.5 393.167,439.5 393.5,439.5C 393.315,440.17 392.981,440.17 392.5,439.5 Z"/></g>
<g><path style="opacity:0.016" fill="#d6d7d7" d="M 391.5,440.5 C 391.833,440.5 392.167,440.5 392.5,440.5C 392.315,441.17 391.981,441.17 391.5,440.5 Z"/></g>
<g><path style="opacity:0.008" fill="#d7d6d7" d="M 389.5,442.5 C 389.5,442.167 389.5,441.833 389.5,441.5C 390.167,441.5 390.833,441.5 391.5,441.5C 391.158,442.338 390.492,442.672 389.5,442.5 Z"/></g>
<g><path style="opacity:0.016" fill="#d7d8d7" d="M 388.5,442.5 C 388.833,442.5 389.167,442.5 389.5,442.5C 389.315,443.17 388.981,443.17 388.5,442.5 Z"/></g>
<g><path style="opacity:0.012" fill="#d6d7d7" d="M 387.5,443.5 C 387.833,443.5 388.167,443.5 388.5,443.5C 388.315,444.17 387.981,444.17 387.5,443.5 Z"/></g>
<g><path style="opacity:0.01" fill="#d7d7d8" d="M 385.5,445.5 C 385.5,445.167 385.5,444.833 385.5,444.5C 386.167,444.5 386.833,444.5 387.5,444.5C 387.158,445.338 386.492,445.672 385.5,445.5 Z"/></g>
<g><path style="opacity:0.016" fill="#d6d7d7" d="M 384.5,445.5 C 384.833,445.5 385.167,445.5 385.5,445.5C 385.315,446.17 384.981,446.17 384.5,445.5 Z"/></g>
<g><path style="opacity:0.01" fill="#d6d6d8" d="M 382.5,447.5 C 382.5,447.167 382.5,446.833 382.5,446.5C 383.167,446.5 383.833,446.5 384.5,446.5C 384.158,447.338 383.492,447.672 382.5,447.5 Z"/></g>
<g><path style="opacity:0.016" fill="#d6d7d7" d="M 381.5,447.5 C 381.833,447.5 382.167,447.5 382.5,447.5C 382.315,448.17 381.981,448.17 381.5,447.5 Z"/></g>
<g><path style="opacity:0.008" fill="#d7d7d8" d="M 379.5,449.5 C 379.5,449.167 379.5,448.833 379.5,448.5C 380.167,448.5 380.833,448.5 381.5,448.5C 381.158,449.338 380.492,449.672 379.5,449.5 Z"/></g>
<g><path style="opacity:0.016" fill="#d6d7d7" d="M 378.5,449.5 C 378.833,449.5 379.167,449.5 379.5,449.5C 379.315,450.17 378.981,450.17 378.5,449.5 Z"/></g>
<g><path style="opacity:0.01" fill="#d6d7d7" d="M 376.5,451.5 C 376.5,451.167 376.5,450.833 376.5,450.5C 377.167,450.5 377.833,450.5 378.5,450.5C 378.158,451.338 377.492,451.672 376.5,451.5 Z"/></g>
<g><path style="opacity:0.008" fill="#d7d7d8" d="M 374.5,452.5 C 374.5,452.167 374.5,451.833 374.5,451.5C 375.167,451.5 375.833,451.5 376.5,451.5C 376.158,452.338 375.492,452.672 374.5,452.5 Z"/></g>
<g><path style="opacity:0.016" fill="#d6d7d7" d="M 373.5,452.5 C 373.833,452.5 374.167,452.5 374.5,452.5C 374.315,453.17 373.981,453.17 373.5,452.5 Z"/></g>
<g><path style="opacity:0.01" fill="#d7d7d8" d="M 371.5,454.5 C 371.5,454.167 371.5,453.833 371.5,453.5C 372.167,453.5 372.833,453.5 373.5,453.5C 373.158,454.338 372.492,454.672 371.5,454.5 Z"/></g>
<g><path style="opacity:0.012" fill="#d6d6d5" d="M 369.5,455.5 C 369.5,455.167 369.5,454.833 369.5,454.5C 370.167,454.5 370.833,454.5 371.5,454.5C 371.158,455.338 370.492,455.672 369.5,455.5 Z"/></g>
<g><path style="opacity:0.01" fill="#d7d7d8" d="M 142.5,455.5 C 142.5,455.833 142.5,456.167 142.5,456.5C 139.833,456.167 139.833,455.833 142.5,455.5 Z"/></g>
<g><path style="opacity:0.016" fill="#d6d7d7" d="M 368.5,455.5 C 368.833,455.5 369.167,455.5 369.5,455.5C 369.315,456.17 368.981,456.17 368.5,455.5 Z"/></g>
<g><path style="opacity:0.012" fill="#d6d7d7" d="M 142.5,456.5 C 143.833,457.167 143.833,457.167 142.5,456.5 Z"/></g>
<g><path style="opacity:0.01" fill="#d6d7d7" d="M 366.5,457.5 C 366.5,457.167 366.5,456.833 366.5,456.5C 367.167,456.5 367.833,456.5 368.5,456.5C 368.158,457.338 367.492,457.672 366.5,457.5 Z"/></g>
<g><path style="opacity:0.01" fill="#d6d6d7" d="M 364.5,458.5 C 364.5,458.167 364.5,457.833 364.5,457.5C 365.167,457.5 365.833,457.5 366.5,457.5C 366.158,458.338 365.492,458.672 364.5,458.5 Z"/></g>
<g><path style="opacity:0.01" fill="#d7d6d7" d="M 362.5,459.5 C 362.5,459.167 362.5,458.833 362.5,458.5C 363.167,458.5 363.833,458.5 364.5,458.5C 364.158,459.338 363.492,459.672 362.5,459.5 Z"/></g>
<g><path style="opacity:0.008" fill="#d8d7d7" d="M 360.5,460.5 C 360.5,460.167 360.5,459.833 360.5,459.5C 361.167,459.5 361.833,459.5 362.5,459.5C 362.158,460.338 361.492,460.672 360.5,460.5 Z"/></g>
<g><path style="opacity:0.012" fill="#d7d6d5" d="M 358.5,461.5 C 358.5,461.167 358.5,460.833 358.5,460.5C 359.167,460.5 359.833,460.5 360.5,460.5C 360.158,461.338 359.492,461.672 358.5,461.5 Z"/></g>
<g><path style="opacity:0.012" fill="#d6d7d7" d="M 358.5,461.5 C 357.833,462.167 357.833,462.167 358.5,461.5 Z"/></g>
<g><path style="opacity:0.012" fill="#d5d5d8" d="M 354.5,463.5 C 354.5,463.167 354.5,462.833 354.5,462.5C 357.167,462.833 357.167,463.167 354.5,463.5 Z"/></g>
<g><path style="opacity:0.008" fill="#d7d7d8" d="M 352.5,464.5 C 352.5,464.167 352.5,463.833 352.5,463.5C 353.167,463.5 353.833,463.5 354.5,463.5C 354.158,464.338 353.492,464.672 352.5,464.5 Z"/></g>
<g><path style="opacity:0.01" fill="#d7d7d8" d="M 350.5,465.5 C 350.5,465.167 350.5,464.833 350.5,464.5C 351.167,464.5 351.833,464.5 352.5,464.5C 352.158,465.338 351.492,465.672 350.5,465.5 Z"/></g>
<g><path style="opacity:0.01" fill="#d7d6d8" d="M 348.5,466.5 C 348.5,466.167 348.5,465.833 348.5,465.5C 349.167,465.5 349.833,465.5 350.5,465.5C 350.158,466.338 349.492,466.672 348.5,466.5 Z"/></g>
<g><path style="opacity:0.012" fill="#d7d7d8" d="M 346.5,467.5 C 346.5,467.167 346.5,466.833 346.5,466.5C 347.167,466.5 347.833,466.5 348.5,466.5C 348.158,467.338 347.492,467.672 346.5,467.5 Z"/></g>
<g><path style="opacity:0.01" fill="#d6d7d7" d="M 166.5,467.5 C 166.5,467.833 166.5,468.167 166.5,468.5C 163.833,468.167 163.833,467.833 166.5,467.5 Z"/></g>
<g><path style="opacity:0.008" fill="#d7d7d7" d="M 343.5,468.5 C 343.5,468.167 343.5,467.833 343.5,467.5C 344.5,467.5 345.5,467.5 346.5,467.5C 345.791,468.404 344.791,468.737 343.5,468.5 Z"/></g>
<g><path style="opacity:0.01" fill="#d7d7d8" d="M 166.5,468.5 C 167.239,468.369 167.906,468.536 168.5,469C 167.563,469.692 166.897,469.525 166.5,468.5 Z"/></g>
<g><path style="opacity:0.012" fill="#d7d7d8" d="M 341.5,469.5 C 341.5,469.167 341.5,468.833 341.5,468.5C 342.167,468.5 342.833,468.5 343.5,468.5C 343.158,469.338 342.492,469.672 341.5,469.5 Z"/></g>
<g><path style="opacity:0.01" fill="#d7d7d8" d="M 171.5,469.5 C 171.5,469.833 171.5,470.167 171.5,470.5C 168.833,470.167 168.833,469.833 171.5,469.5 Z"/></g>
<g><path style="opacity:0.01" fill="#d6d7d7" d="M 341.5,469.5 C 341.103,470.525 340.437,470.692 339.5,470C 340.094,469.536 340.761,469.369 341.5,469.5 Z"/></g>
<g><path style="opacity:0.01" fill="#d7d7d8" d="M 171.5,470.5 C 172.239,470.369 172.906,470.536 173.5,471C 172.563,471.692 171.897,471.525 171.5,470.5 Z"/></g>
<g><path style="opacity:0.012" fill="#d6d6d7" d="M 336.5,471.5 C 336.5,471.167 336.5,470.833 336.5,470.5C 339.167,470.833 339.167,471.167 336.5,471.5 Z"/></g>
<g><path style="opacity:0.009" fill="#d6d6d8" d="M 333.5,472.5 C 333.5,472.167 333.5,471.833 333.5,471.5C 334.5,471.5 335.5,471.5 336.5,471.5C 335.791,472.404 334.791,472.737 333.5,472.5 Z"/></g>
<g><path style="opacity:0.012" fill="#d6d7d7" d="M 333.5,472.5 C 333.103,473.525 332.437,473.692 331.5,473C 332.094,472.536 332.761,472.369 333.5,472.5 Z"/></g>
<g><path style="opacity:0.012" fill="#d6d7d7" d="M 328.5,474.5 C 328.897,473.475 329.563,473.308 330.5,474C 329.906,474.464 329.239,474.631 328.5,474.5 Z"/></g>
<g><path style="opacity:0.009" fill="#d7d7d7" d="M 325.5,475.5 C 326.209,474.596 327.209,474.263 328.5,474.5C 327.791,475.404 326.791,475.737 325.5,475.5 Z"/></g>
<g><path style="opacity:0.009" fill="#d7d7d8" d="M 325.5,475.5 C 324.749,476.573 323.749,476.74 322.5,476C 323.448,475.517 324.448,475.351 325.5,475.5 Z"/></g>
<g><path style="opacity:0.009" fill="#d6d6d7" d="M 318.5,477.5 C 318.5,477.167 318.5,476.833 318.5,476.5C 322.5,476.833 322.5,477.167 318.5,477.5 Z"/></g>
<g><path style="opacity:0.01" fill="#d6d6d7" d="M 314.5,478.5 C 314.5,478.167 314.5,477.833 314.5,477.5C 315.833,477.5 317.167,477.5 318.5,477.5C 317.432,478.434 316.099,478.768 314.5,478.5 Z"/></g>
<g><path style="opacity:0.012" fill="#d6d7d7" d="M 311.5,479.5 C 312.209,478.596 313.209,478.263 314.5,478.5C 313.791,479.404 312.791,479.737 311.5,479.5 Z"/></g>
<g><path style="opacity:0.009" fill="#d7d7d8" d="M 311.5,479.5 C 310.399,480.598 309.066,480.765 307.5,480C 308.793,479.51 310.127,479.343 311.5,479.5 Z"/></g>
<g><path style="opacity:0.01" fill="#d6d6d8" d="M 302.5,481.5 C 302.5,481.167 302.5,480.833 302.5,480.5C 307.833,480.833 307.833,481.167 302.5,481.5 Z"/></g>
<g><path style="opacity:0.009" fill="#d7d7d7" d="M 297.5,482.5 C 297.5,482.167 297.5,481.833 297.5,481.5C 299.167,481.5 300.833,481.5 302.5,481.5C 301.081,482.451 299.415,482.784 297.5,482.5 Z"/></g>
<g><path style="opacity:0.01" fill="#d6d6d8" d="M 291.5,483.5 C 291.5,483.167 291.5,482.833 291.5,482.5C 293.5,482.5 295.5,482.5 297.5,482.5C 295.735,483.461 293.735,483.795 291.5,483.5 Z"/></g>
<g><path style="opacity:0.01" fill="#d7d6d8" d="M 291.5,483.5 C 289.712,484.622 287.712,484.789 285.5,484C 287.473,483.505 289.473,483.338 291.5,483.5 Z"/></g>
<g><path style="opacity:0.009" fill="#d6d6d8" d="M 234.5,485.5 C 231.482,485.665 228.482,485.498 225.5,485C 228.696,484.195 231.696,484.362 234.5,485.5 Z"/></g>
<g><path style="opacity:0.011" fill="#d7d7d8" d="M 276.5,485.5 C 278.966,484.366 281.633,484.199 284.5,485C 281.854,485.497 279.187,485.664 276.5,485.5 Z"/></g>
<g><path style="opacity:0.01" fill="#d7d6d7" d="M 234.5,485.5 C 248.171,485.333 261.837,485.5 275.5,486C 261.66,486.827 247.994,486.661 234.5,485.5 Z"/></g>
</svg>
